<svg xmlns="http://www.w3.org/2000/svg" width="276.157" height="168.936" viewBox="0 0 276.157 168.936">
  <g id="Group_8272" data-name="Group 8272" transform="translate(10501.962 19753.211)">
    <path id="Path_22" data-name="Path 22" d="M1689.355,1062.708h-60.739a10.3,10.3,0,0,0-8.941,5.177l-11.017,19.081-6.995,12.112h28.01l5.3-9.19,0,0a5.034,5.034,0,0,1,.371-.645l.009-.013a5.146,5.146,0,0,1,4.265-2.261h16.487v.057a5.155,5.155,0,0,1,4.406,7.825l.072.041-2.418,4.189-6.973,12.081-1.928,3.337-12,20.779-.418.723a36.1,36.1,0,0,1,29.127,35.436v.019a36.134,36.134,0,0,1-72.269,0v-.019h-24.331a60.557,60.557,0,0,0,1.216,12.071,59.883,59.883,0,0,0,10.9,24.12,60.853,60.853,0,0,0,8.652,9.272,60.174,60.174,0,0,0,99.634-45.463v-.031a60.15,60.15,0,0,0-19.659-44.507l9.086-15.738,6.973-12.08,6.995-12.112,4.724-8.187c.006-.006.01-.016.016-.022a10.1,10.1,0,0,0,.708-1.23,10.311,10.311,0,0,0-9.27-14.82Z" transform="translate(-11925.467 -20815.918)" fill="#fced00"/>
    <path id="Path_23" data-name="Path 23" d="M1788.29,1533.888a19,19,0,0,0-4.258,12.012v.031a19.064,19.064,0,0,0,38.129,0v-.031a19.065,19.065,0,0,0-19.067-19.066,19.366,19.366,0,0,0-2.575.174A19.029,19.029,0,0,0,1788.29,1533.888Z" transform="translate(-12098.664 -21190.414)" fill="#fced00"/>
    <path id="Path_24" data-name="Path 24" d="M971.92,1337.7a59.885,59.885,0,0,0-10.841,24.117h24.268L999.27,1337.7l13.653-23.651.27-.465h-78.27c-.1,0-.207,0-.311,0s-.208,0-.311,0a12.026,12.026,0,0,0-9.92,5.693l-.39.673-10.25,17.751H862.75v0a12.037,12.037,0,0,0-10.583,6.3l-.022-.013-10.3,17.831-6.951,12.042-6.973,12.074L814,1410.052h28.985l13.924-24.117,6.971-12.074,5.4-9.357.022.013a5.148,5.148,0,0,1,4.529-2.7h25.982l-6.951,12.042-6.973,12.074-13.924,24.117H900.5l13.924-24.117,6.973-12.074,6.951-12.042,12.48-21.613.006,0a5.147,5.147,0,0,1,4.406-2.482v-.025Z" transform="translate(-11315.962 -21018.344)" fill="#fced00"/>
  </g>
</svg>
